# xmcd CD database file generated by Grip 3.2.0
# 
# Track frame offsets:
#       150
#       17525
#       34562
#       50989
#       63958
#       78451
#       95939
#       107104
#       123027
#       144303
#       162575
#       177700
#       191846
#       207288
#       215835
#       237472
#       254557
# 
# Disc length: 3557 seconds
# 
# Revision: 2
# Processed by: cddbd v1.5.1PL0 Copyright (c) Steve Scherf et al.
# Submitted via: Grip 3.2.0
# 
DISCID=060de311
DTITLE=Suzanne vega - Tried and True (Best of)
DYEAR=1900
DGENRE=Pop
TTITLE0=Luka
TTITLE1=Tom's diner (DNA feat Suzanne Vega)
TTITLE2=Marlene on the wall
TTITLE3=Caramel
TTITLE4=99,9°F
TTITLE5=Small blue thing
TTITLE6=Blood makes noise
TTITLE7=Left of center (feat Joe Jackson on piano)
TTITLE8=In Liverpool
TTITLE9=Gypsy
TTITLE10=Book of dreams
TTITLE11=No cheap thrill
TTITLE12=World before Columbus
TTITLE13=When heroes go down
TTITLE14=The queen and the soldier
TTITLE15=Book and a cover
TTITLE16=Rosemary
EXTD=
EXTT0=
EXTT1=
EXTT2=
EXTT3=
EXTT4=
EXTT5=
EXTT6=
EXTT7=
EXTT8=
EXTT9=
EXTT10=
EXTT11=
EXTT12=
EXTT13=
EXTT14=
EXTT15=
EXTT16=
PLAYORDER=
